<svg xmlns="http://www.w3.org/2000/svg" width="32" height="33" fill="none" viewBox="0 0 32 33">
  <rect width="32" height="32" y=".5" fill="#FEF2F2" rx="16"/>
  <path fill="#DB2777" d="M13.099 13.227h1.733v5.029c-.003.47-.115.883-.338 1.235-.222.35-.53.623-.923.817-.39.194-.843.291-1.357.291-.454 0-.867-.079-1.239-.238a1.966 1.966 0 0 1-.884-.738c-.218-.334-.326-.761-.323-1.282h1.75c.008.187.043.347.107.48a.69.69 0 0 0 .273.294c.116.066.255.1.416.1.168 0 .31-.036.426-.107a.677.677 0 0 0 .263-.323 1.37 1.37 0 0 0 .096-.53v-5.028Zm2.836 7.273v-7.273h1.758v3.076h.096l2.404-3.076h2.07l-2.578 3.246L22.31 20.5h-2.103l-1.81-2.859-.704.888V20.5h-1.758Z"/>
</svg>
