<svg xmlns="http://www.w3.org/2000/svg" width="20" height="20" fill="none" viewBox="0 0 20 20">
  <path fill="#A855F7" d="M10.975 1.667H5c-.917 0-1.667.75-1.667 1.666v13.334c0 .916.75 1.666 1.667 1.666h10c.917 0 1.667-.75 1.667-1.666V7.358a1.64 1.64 0 0 0-.492-1.175L12.15 2.158a1.638 1.638 0 0 0-1.175-.491ZM13.333 12.5a3.332 3.332 0 0 1-3.658 3.317c-1.733-.167-3.008-1.717-3.008-3.459V8.033c0-1.091.783-2.083 1.866-2.191 1.25-.125 2.3.85 2.3 2.075v3.75A.836.836 0 0 1 10 12.5a.836.836 0 0 1-.833-.833v-3.75A.413.413 0 0 0 8.75 7.5a.413.413 0 0 0-.417.417v4.491c0 .834.567 1.6 1.384 1.734a1.666 1.666 0 0 0 1.95-1.642V10c0-.458.375-.833.833-.833.458 0 .833.375.833.833v2.5Zm-1.666-6.667v-2.5L15 6.667h-2.5a.836.836 0 0 1-.833-.834Z"/>
</svg>
