<svg xmlns="http://www.w3.org/2000/svg" width="24" height="24" fill="none" viewBox="0 0 24 24">
  <path fill="#3B82F6" d="M17.999 15v4c0 .55-.45 1-1 1h-12c-.55 0-1-.45-1-1V7c0-.55.45-1 1-1h3.02c.55 0 1-.45 1-1s-.45-1-1-1h-4.02c-1.1 0-2 .9-2 2v14c0 1.1.9 2 2 2h14c1.1 0 2-.9 2-2v-5c0-.55-.45-1-1-1s-1 .45-1 1Zm-2.5 3h-8.98c-.42 0-.65-.48-.39-.81l1.74-2.23a.5.5 0 0 1 .78-.01l1.56 1.88 2.35-3.02c.2-.26.6-.26.79.01l2.55 3.39c.25.32.01.79-.4.79Zm3.8-9.11c.48-.77.75-1.67.69-2.66-.13-2.15-1.84-3.97-3.97-4.2a4.5 4.5 0 0 0-5.02 4.47c0 2.49 2.01 4.5 4.49 4.5.88 0 1.7-.26 2.39-.7l2.41 2.41c.39.39 1.03.39 1.42 0 .39-.39.39-1.03 0-1.42l-2.41-2.4Zm-3.8.11a2.5 2.5 0 0 1 0-5 2.5 2.5 0 0 1 0 5Z"/>
</svg>
