<svg xmlns="http://www.w3.org/2000/svg" width="24" height="24" fill="none" viewBox="0 0 24 24">
  <path fill="#3B82F6" d="M16.5 11c.7 0 1.37.1 2 .29V10c0-1.1-.9-2-2-2h-1V6c0-2.76-2.24-5-5-5s-5 2.24-5 5v2h-1c-1.1 0-2 .9-2 2v10c0 1.1.9 2 2 2h6.26a6.995 6.995 0 0 1 5.74-11Zm-9-5c0-1.66 1.34-3 3-3s3 1.34 3 3v2h-6V6Z"/>
  <path fill="#3B82F6" d="M16.5 13c-2.76 0-5 2.24-5 5s2.24 5 5 5 5-2.24 5-5-2.24-5-5-5Zm2 7c-.2.2-.51.2-.71 0l-1.65-1.65a.51.51 0 0 1-.15-.35v-2.5c0-.28.22-.5.5-.5s.5.22.5.5v2.29l1.5 1.5c.21.2.21.51.01.71Z"/>
</svg>
