<svg xmlns="http://www.w3.org/2000/svg" width="20" height="20" fill="none" viewBox="0 0 20 20">
  <path fill="#F59E0B" d="M16.667 1.667H3.333c-.916 0-1.658.75-1.658 1.666l-.008 15L5 15h11.667c.916 0 1.666-.75 1.666-1.667v-10c0-.916-.75-1.666-1.666-1.666Zm-2.5 10H5.833A.836.836 0 0 1 5 10.833c0-.458.375-.833.833-.833h8.334c.458 0 .833.375.833.833a.836.836 0 0 1-.833.834Zm0-2.5H5.833A.836.836 0 0 1 5 8.333c0-.458.375-.833.833-.833h8.334c.458 0 .833.375.833.833a.836.836 0 0 1-.833.834Zm0-2.5H5.833A.836.836 0 0 1 5 5.833C5 5.375 5.375 5 5.833 5h8.334c.458 0 .833.375.833.833a.836.836 0 0 1-.833.834Z"/>
</svg>
