<svg xmlns="http://www.w3.org/2000/svg" width="40" height="40" fill="none" viewBox="0 0 40 40">
  <rect width="40" height="40" fill="#F2F4F7" rx="20"/>
  <path fill="#606C80" d="M15.197 22.739v-6.17h1.718v6.17h-1.718Zm-2.228-2.225v-1.721h6.17v1.721h-6.17ZM24.16 24.12c-.636 0-1.201-.115-1.696-.345a2.908 2.908 0 0 1-1.172-.95 2.448 2.448 0 0 1-.443-1.39h2.046c.017.322.147.58.392.776.244.193.535.29.873.29.264 0 .499-.058.703-.175.205-.116.365-.28.482-.49a1.47 1.47 0 0 0 .17-.733 1.438 1.438 0 0 0-.174-.737 1.24 1.24 0 0 0-.486-.49 1.378 1.378 0 0 0-.708-.179 1.55 1.55 0 0 0-.72.166 1.216 1.216 0 0 0-.511.465l-1.862-.35.379-4.704h5.6v1.7h-3.866l-.2 2.058h.051c.145-.241.378-.44.699-.596a2.47 2.47 0 0 1 1.104-.239c.522 0 .988.122 1.397.366.412.242.736.577.972 1.006.239.43.358.92.358 1.475 0 .599-.142 1.13-.426 1.593a2.935 2.935 0 0 1-1.185 1.091c-.506.262-1.098.392-1.777.392Z"/>
</svg>
