<svg xmlns="http://www.w3.org/2000/svg" width="20" height="20" fill="none" viewBox="0 0 20 20">
  <path fill="#33BFFF" d="M16.175 6.175 12.15 2.15a1.665 1.665 0 0 0-1.175-.483H5c-.917 0-1.658.75-1.658 1.666l-.009 13.334c0 .916.742 1.666 1.659 1.666H15c.917 0 1.667-.75 1.667-1.666V7.358c0-.441-.175-.866-.492-1.183Zm-7.65 8.233-1.767-1.766a.83.83 0 1 1 1.175-1.175l1.175 1.175 2.95-2.95a.83.83 0 1 1 1.175 1.175L9.7 14.4a.823.823 0 0 1-1.175.008ZM11.667 7.5a.836.836 0 0 1-.834-.833v-3.75L15.417 7.5h-3.75Z"/>
</svg>
