<svg xmlns="http://www.w3.org/2000/svg" width="30" height="30" fill="none" viewBox="0 0 30 30">
  <g filter="url(#a)">
    <rect width="24" height="24" x="3" y="2" fill="#fff" rx="12"/>
    <path fill="#1DA1F2" d="M20 10.899a4.109 4.109 0 0 1-1.178.323c.424-.254.749-.657.902-1.136a4.096 4.096 0 0 1-1.303.498 2.052 2.052 0 0 0-3.496 1.872 5.826 5.826 0 0 1-4.229-2.144 2.052 2.052 0 0 0 .635 2.74 2.047 2.047 0 0 1-.929-.258v.027c0 .994.707 1.823 1.646 2.011a2.067 2.067 0 0 1-.927.036 2.053 2.053 0 0 0 1.917 1.424 4.117 4.117 0 0 1-3.038.85 5.802 5.802 0 0 0 3.145.922c3.774 0 5.837-3.126 5.837-5.838 0-.088-.002-.177-.006-.265.4-.29.749-.65 1.023-1.061l.001-.001Z"/>
  </g>
  <defs>
    <filter id="a" width="30" height="30" x="0" y="0" color-interpolation-filters="sRGB" filterUnits="userSpaceOnUse">
      <feFlood flood-opacity="0" result="BackgroundImageFix"/>
      <feColorMatrix in="SourceAlpha" result="hardAlpha" values="0 0 0 0 0 0 0 0 0 0 0 0 0 0 0 0 0 0 127 0"/>
      <feOffset dy="1"/>
      <feGaussianBlur stdDeviation="1.5"/>
      <feColorMatrix values="0 0 0 0 0.376471 0 0 0 0 0.423529 0 0 0 0 0.501961 0 0 0 0.05 0"/>
      <feBlend in2="BackgroundImageFix" result="effect1_dropShadow_107_1772"/>
      <feBlend in="SourceGraphic" in2="effect1_dropShadow_107_1772" result="shape"/>
    </filter>
  </defs>
</svg>
